<svg xmlns="http://www.w3.org/2000/svg" version="1.1" xmlns:xlink="http://www.w3.org/1999/xlink" xmlns:svgjs="http://svgjs.dev/svgjs" width="1000" height="518" viewBox="0 0 1000 518"><g transform="matrix(1,0,0,1,0.1983338176304983,0)"><svg viewBox="0 0 386 200" data-background-color="#051726" preserveAspectRatio="xMidYMid meet" height="518" width="1000" xmlns="http://www.w3.org/2000/svg" xmlns:xlink="http://www.w3.org/1999/xlink"><g id="tight-bounds" transform="matrix(1,0,0,1,-0.07634884828433997,0)"><svg viewBox="0 0 386.1528852206475 200" height="200" width="386.1528852206475"><g><svg viewBox="0 0 388.0836496467507 201" height="200" width="386.1528852206475"><g><rect width="3.334653777732998" height="201" x="149.0170168261965" y="0" fill="#ffffff" opacity="1" stroke-width="0" stroke="transparent" fill-opacity="1" class="rect-o-0" data-fill-palette-color="primary" rx="1%" id="o-0" data-palette-color="#ffffff"></rect></g><g transform="matrix(1,0,0,1,161.08113075506301,0.4999999999999858)"><svg viewBox="0 0 227.00251889168769 200.00000000000003" height="200.00000000000003" width="227.00251889168769"><g id="textblocktransform"><svg viewBox="0 0 227.00251889168769 200.00000000000003" height="200.00000000000003" width="227.00251889168769" id="textblock"><g><svg viewBox="0 0 227.00251889168769 200.00000000000003" height="200.00000000000003" width="227.00251889168769"><g transform="matrix(1,0,0,1,0,0)"><svg width="227.00251889168769" viewBox="1.150000810623169 -35.79999923706055 226.6499786376953 195.40000915527344" height="200.00000000000003" data-palette-color="#ffffff"><svg></svg><svg></svg><svg></svg><svg></svg><svg></svg><g class="wordmark-text-0" data-fill-palette-color="primary" id="text-0"><path xmlns="http://www.w3.org/2000/svg" d="M18.8 0.8v0c-3.6 0-6.667-0.793-9.2-2.38-2.533-1.58-4.467-3.72-5.8-6.42-1.333-2.7-2-5.7-2-9v0c0-2.267 0.36-4.517 1.08-6.75 0.713-2.233 1.787-4.26 3.22-6.08 1.433-1.813 3.243-3.263 5.43-4.35 2.18-1.08 4.72-1.62 7.62-1.62v0c0.9 0 1.917 0.093 3.05 0.28 1.133 0.18 2.277 0.453 3.43 0.82 1.147 0.367 2.17 0.817 3.07 1.35v0l-0.2-2.1h3.85v11.65h-3.25c-0.3-1.867-0.883-3.417-1.75-4.65-0.867-1.233-1.95-2.167-3.25-2.8-1.3-0.633-2.733-0.95-4.3-0.95v0c-1.733 0-3.24 0.4-4.52 1.2-1.287 0.8-2.347 1.867-3.18 3.2-0.833 1.333-1.457 2.85-1.87 4.55-0.42 1.7-0.63 3.45-0.63 5.25v0c0 2.867 0.4 5.417 1.2 7.65 0.8 2.233 1.977 3.99 3.53 5.27 1.547 1.287 3.453 1.93 5.72 1.93v0c0.633 0 1.383-0.05 2.25-0.15 0.867-0.1 1.733-0.25 2.6-0.45 0.867-0.2 1.6-0.45 2.2-0.75v0-4.65c0-0.9 0.027-1.767 0.08-2.6 0.047-0.833 0.087-1.467 0.12-1.9v0c-0.533 0.033-1.2 0.057-2 0.07-0.8 0.02-1.383 0.047-1.75 0.08v0-3.85h13.3v3.3c-0.567 0.033-1.057 0.1-1.47 0.2-0.42 0.1-0.77 0.29-1.05 0.57-0.287 0.287-0.497 0.713-0.63 1.28-0.133 0.567-0.2 1.333-0.2 2.3v0 8h-1.2c-0.967 0-1.933 0.133-2.9 0.4-0.967 0.267-2 0.567-3.1 0.9v0c-1.033 0.3-2.167 0.577-3.4 0.83-1.233 0.247-2.6 0.37-4.1 0.37zM55.05 0h-14.85v-3.3c0.767-0.033 1.41-0.133 1.93-0.3 0.513-0.167 0.913-0.55 1.2-1.15 0.28-0.6 0.42-1.567 0.42-2.9v0-19.15c0-0.9 0.027-1.767 0.08-2.6 0.047-0.833 0.087-1.467 0.12-1.9v0c-0.533 0.033-1.2 0.057-2 0.07-0.8 0.02-1.383 0.047-1.75 0.08v0-3.85c2.367-0.033 4.733-0.05 7.1-0.05 2.367 0 4.733-0.017 7.1-0.05v0c2.933-0.033 5.483 0.3 7.65 1 2.167 0.7 3.833 1.833 5 3.4 1.167 1.567 1.717 3.683 1.65 6.35v0c-0.033 1.4-0.373 2.733-1.02 4-0.653 1.267-1.62 2.383-2.9 3.35-1.287 0.967-2.913 1.733-4.88 2.3v0c0.633 0.267 1.26 0.7 1.88 1.3 0.613 0.6 1.137 1.233 1.57 1.9v0l2.35 3.5c0.733 1.133 1.383 2.033 1.95 2.7 0.567 0.667 1.133 1.157 1.7 1.47 0.567 0.32 1.217 0.497 1.95 0.53v0 3.3h-8.25c-0.6-0.433-1.19-1.06-1.77-1.88-0.587-0.813-1.213-1.753-1.88-2.82v0l-3.7-6c-0.433-0.667-0.807-1.233-1.12-1.7-0.32-0.467-0.647-0.867-0.98-1.2v0c-0.533 0-0.983 0-1.35 0-0.367 0-0.783 0-1.25 0v0 5.35c0 0.933-0.017 1.817-0.05 2.65-0.033 0.833-0.083 1.467-0.15 1.9v0c0.367-0.033 0.833-0.06 1.4-0.08 0.567-0.013 1.127-0.03 1.68-0.05 0.547-0.013 0.937-0.02 1.17-0.02v0zM53.4-17.2v0c1.867 0 3.367-0.277 4.5-0.83 1.133-0.547 1.96-1.38 2.48-2.5 0.513-1.113 0.77-2.52 0.77-4.22v0c0-1.6-0.25-2.86-0.75-3.78-0.5-0.913-1.123-1.597-1.87-2.05-0.753-0.447-1.513-0.73-2.28-0.85-0.767-0.113-1.4-0.17-1.9-0.17v0c-0.7 0-1.3 0.083-1.8 0.25-0.5 0.167-0.883 0.533-1.15 1.1-0.267 0.567-0.4 1.433-0.4 2.6v0 10.25c0.367 0.033 0.75 0.073 1.15 0.12 0.4 0.053 0.817 0.08 1.25 0.08zM94.8-12.05h-3.3c0-1.4-0.217-2.41-0.65-3.03-0.433-0.613-1.023-1.003-1.77-1.17-0.753-0.167-1.58-0.233-2.48-0.2v0l-1.3 0.05v8.2c0 0.9-0.017 1.75-0.05 2.55-0.033 0.8-0.083 1.417-0.15 1.85v0h6.7c1 0 1.967-0.227 2.9-0.68 0.933-0.447 1.7-1.197 2.3-2.25 0.6-1.047 0.9-2.47 0.9-4.27v0h3.25l-0.25 11h-26.4v-3.3c0.767-0.033 1.407-0.133 1.92-0.3 0.52-0.167 0.923-0.55 1.21-1.15 0.28-0.6 0.42-1.567 0.42-2.9v0-19.15c0-0.9 0.027-1.767 0.08-2.6 0.047-0.833 0.087-1.467 0.12-1.9v0c-0.533 0.033-1.2 0.057-2 0.07-0.8 0.02-1.383 0.047-1.75 0.08v0-3.85h25l0.3 9.7h-3.3c0-1.833-0.317-3.217-0.95-4.15-0.633-0.933-1.417-1.56-2.35-1.88-0.933-0.313-1.85-0.453-2.75-0.42v0l-1.8 0.05c-0.7 0-1.3 0.09-1.8 0.27-0.5 0.187-0.883 0.587-1.15 1.2-0.267 0.62-0.4 1.58-0.4 2.88v0 7.5h5.85l-0.2-4.35h3.85zM126-12.05h-3.3c0-1.4-0.217-2.41-0.65-3.03-0.433-0.613-1.023-1.003-1.77-1.17-0.753-0.167-1.58-0.233-2.48-0.2v0l-1.3 0.05v8.2c0 0.9-0.017 1.75-0.05 2.55-0.033 0.8-0.083 1.417-0.15 1.85v0h6.7c1 0 1.967-0.227 2.9-0.68 0.933-0.447 1.7-1.197 2.3-2.25 0.6-1.047 0.9-2.47 0.9-4.27v0h3.25l-0.25 11h-26.4v-3.3c0.767-0.033 1.41-0.133 1.93-0.3 0.513-0.167 0.913-0.55 1.2-1.15 0.28-0.6 0.42-1.567 0.42-2.9v0-19.15c0-0.9 0.027-1.767 0.08-2.6 0.047-0.833 0.087-1.467 0.12-1.9v0c-0.533 0.033-1.2 0.057-2 0.07-0.8 0.02-1.383 0.047-1.75 0.08v0-3.85h25l0.3 9.7h-3.3c0-1.833-0.317-3.217-0.95-4.15-0.633-0.933-1.417-1.56-2.35-1.88-0.933-0.313-1.85-0.453-2.75-0.42v0l-1.8 0.05c-0.7 0-1.3 0.09-1.8 0.27-0.5 0.187-0.883 0.587-1.15 1.2-0.267 0.62-0.4 1.58-0.4 2.88v0 7.5h5.85l-0.2-4.35h3.85zM167.75 0.5h-4.25l-16-20.45c-0.433-0.567-0.883-1.167-1.35-1.8-0.467-0.633-0.933-1.283-1.4-1.95v0h-0.05l0.1 15.5c0 0.9-0.017 1.767-0.05 2.6-0.033 0.833-0.083 1.467-0.15 1.9v0c0.533-0.067 1.21-0.11 2.03-0.13 0.813-0.013 1.387-0.02 1.72-0.02v0 3.85h-11.4v-3.3c0.767-0.033 1.41-0.133 1.93-0.3 0.513-0.167 0.913-0.55 1.2-1.15 0.28-0.6 0.42-1.567 0.42-2.9v0l-0.1-19.15c0-0.9 0.017-1.767 0.05-2.6 0.033-0.833 0.083-1.467 0.15-1.9v0c-0.533 0.033-1.207 0.057-2.02 0.07-0.82 0.02-1.413 0.047-1.78 0.08v0-3.85h7.85l15.3 19.3c0.833 1.067 1.527 1.983 2.08 2.75 0.547 0.767 1.02 1.433 1.42 2v0h0.05v-15.85c0-0.9 0.017-1.767 0.05-2.6 0.033-0.833 0.067-1.467 0.1-1.9v0c-0.533 0.033-1.2 0.057-2 0.07-0.8 0.02-1.383 0.047-1.75 0.08v0-3.85h11.4v3.3c-0.733 0.033-1.367 0.133-1.9 0.3-0.533 0.167-0.94 0.54-1.22 1.12-0.287 0.587-0.43 1.563-0.43 2.93v0z" fill="#ffffff" fill-rule="nonzero" stroke="none" stroke-width="1" stroke-linecap="butt" stroke-linejoin="miter" stroke-miterlimit="10" stroke-dasharray="" stroke-dashoffset="0" font-family="none" font-weight="none" font-size="none" text-anchor="none" style="mix-blend-mode: normal" data-fill-palette-color="primary" opacity="1"></path><path xmlns="http://www.w3.org/2000/svg" d="M22.8 27.65h-3.3c0-1.4-0.217-2.41-0.65-3.03-0.433-0.613-1.027-1.003-1.78-1.17-0.747-0.167-1.57-0.233-2.47-0.2v0l-1.3 0.05v8.2c0 0.9-0.017 1.75-0.05 2.55-0.033 0.8-0.083 1.417-0.15 1.85v0h6.7c1 0 1.967-0.227 2.9-0.68 0.933-0.447 1.7-1.197 2.3-2.25 0.6-1.047 0.9-2.47 0.9-4.27v0h3.25l-0.25 11h-26.4v-3.3c0.767-0.033 1.407-0.133 1.92-0.3 0.52-0.167 0.923-0.55 1.21-1.15 0.28-0.6 0.42-1.567 0.42-2.9v0-19.15c0-0.9 0.027-1.767 0.08-2.6 0.047-0.833 0.087-1.467 0.12-1.9v0c-0.533 0.033-1.2 0.057-2 0.07-0.8 0.02-1.383 0.047-1.75 0.08v0-3.85h25l0.3 9.7h-3.3c0-1.833-0.317-3.217-0.95-4.15-0.633-0.933-1.417-1.56-2.35-1.88-0.933-0.313-1.85-0.453-2.75-0.42v0l-1.8 0.05c-0.7 0-1.3 0.09-1.8 0.27-0.5 0.187-0.883 0.587-1.15 1.2-0.267 0.62-0.4 1.58-0.4 2.88v0 7.5h5.85l-0.2-4.35h3.85zM64.55 40.2h-4.25l-16-20.45c-0.433-0.567-0.883-1.167-1.35-1.8-0.467-0.633-0.933-1.283-1.4-1.95v0h-0.05l0.1 15.5c0 0.9-0.017 1.767-0.05 2.6-0.033 0.833-0.083 1.467-0.15 1.9v0c0.533-0.067 1.21-0.11 2.03-0.13 0.813-0.013 1.387-0.02 1.72-0.02v0 3.85h-11.4v-3.3c0.767-0.033 1.41-0.133 1.93-0.3 0.513-0.167 0.913-0.55 1.2-1.15 0.28-0.6 0.42-1.567 0.42-2.9v0l-0.1-19.15c0-0.9 0.017-1.767 0.05-2.6 0.033-0.833 0.083-1.467 0.15-1.9v0c-0.533 0.033-1.207 0.057-2.02 0.07-0.82 0.02-1.413 0.047-1.78 0.08v0-3.85h7.85l15.3 19.3c0.833 1.067 1.527 1.983 2.08 2.75 0.547 0.767 1.02 1.433 1.42 2v0h0.05v-15.85c0-0.9 0.017-1.767 0.05-2.6 0.033-0.833 0.067-1.467 0.1-1.9v0c-0.533 0.033-1.2 0.057-2 0.07-0.8 0.02-1.383 0.047-1.75 0.08v0-3.85h11.4v3.3c-0.733 0.033-1.367 0.133-1.9 0.3-0.533 0.167-0.943 0.54-1.23 1.12-0.28 0.587-0.42 1.563-0.42 2.93v0zM92.65 27.65h-3.3c0-1.4-0.217-2.41-0.65-3.03-0.433-0.613-1.023-1.003-1.77-1.17-0.753-0.167-1.58-0.233-2.48-0.2v0l-1.3 0.05v8.2c0 0.9-0.017 1.75-0.05 2.55-0.033 0.8-0.083 1.417-0.15 1.85v0h6.7c1 0 1.967-0.227 2.9-0.68 0.933-0.447 1.7-1.197 2.3-2.25 0.6-1.047 0.9-2.47 0.9-4.27v0h3.25l-0.25 11h-26.4v-3.3c0.767-0.033 1.41-0.133 1.93-0.3 0.513-0.167 0.913-0.55 1.2-1.15 0.28-0.6 0.42-1.567 0.42-2.9v0-19.15c0-0.9 0.027-1.767 0.08-2.6 0.047-0.833 0.087-1.467 0.12-1.9v0c-0.533 0.033-1.2 0.057-2 0.07-0.8 0.02-1.383 0.047-1.75 0.08v0-3.85h25l0.3 9.7h-3.3c0-1.833-0.317-3.217-0.95-4.15-0.633-0.933-1.417-1.56-2.35-1.88-0.933-0.313-1.85-0.453-2.75-0.42v0l-1.8 0.05c-0.7 0-1.3 0.09-1.8 0.27-0.5 0.187-0.883 0.587-1.15 1.2-0.267 0.62-0.4 1.58-0.4 2.88v0 7.5h5.85l-0.2-4.35h3.85zM118.4 39.7h-14.85v-3.3c0.767-0.033 1.41-0.133 1.93-0.3 0.513-0.167 0.913-0.55 1.2-1.15 0.28-0.6 0.42-1.567 0.42-2.9v0-19.15c0-0.9 0.027-1.767 0.08-2.6 0.047-0.833 0.087-1.467 0.12-1.9v0c-0.533 0.033-1.2 0.057-2 0.07-0.8 0.02-1.383 0.047-1.75 0.08v0-3.85c2.367-0.033 4.733-0.05 7.1-0.05 2.367 0 4.733-0.017 7.1-0.05v0c2.933-0.033 5.483 0.3 7.65 1 2.167 0.7 3.833 1.833 5 3.4 1.167 1.567 1.717 3.683 1.65 6.35v0c-0.033 1.4-0.373 2.733-1.02 4-0.653 1.267-1.62 2.383-2.9 3.35-1.287 0.967-2.913 1.733-4.88 2.3v0c0.633 0.267 1.26 0.7 1.88 1.3 0.613 0.6 1.137 1.233 1.57 1.9v0l2.35 3.5c0.733 1.133 1.383 2.033 1.95 2.7 0.567 0.667 1.133 1.157 1.7 1.47 0.567 0.32 1.217 0.497 1.95 0.53v0 3.3h-8.25c-0.6-0.433-1.19-1.06-1.77-1.88-0.587-0.813-1.213-1.753-1.88-2.82v0l-3.7-6c-0.433-0.667-0.807-1.233-1.12-1.7-0.32-0.467-0.647-0.867-0.98-1.2v0c-0.533 0-0.983 0-1.35 0-0.367 0-0.783 0-1.25 0v0 5.35c0 0.933-0.017 1.817-0.05 2.65-0.033 0.833-0.083 1.467-0.15 1.9v0c0.367-0.033 0.833-0.06 1.4-0.08 0.567-0.013 1.127-0.03 1.68-0.05 0.547-0.013 0.937-0.02 1.17-0.02v0zM116.75 22.5v0c1.867 0 3.367-0.277 4.5-0.83 1.133-0.547 1.96-1.38 2.48-2.5 0.513-1.113 0.77-2.52 0.77-4.22v0c0-1.6-0.25-2.86-0.75-3.78-0.5-0.913-1.123-1.597-1.87-2.05-0.753-0.447-1.513-0.73-2.28-0.85-0.767-0.113-1.4-0.17-1.9-0.17v0c-0.7 0-1.3 0.083-1.8 0.25-0.5 0.167-0.883 0.533-1.15 1.1-0.267 0.567-0.4 1.433-0.4 2.6v0 10.25c0.367 0.033 0.75 0.073 1.15 0.12 0.4 0.053 0.817 0.08 1.25 0.08zM153.9 40.5v0c-3.6 0-6.667-0.793-9.2-2.38-2.533-1.58-4.467-3.72-5.8-6.42-1.333-2.7-2-5.7-2-9v0c0-2.267 0.36-4.517 1.08-6.75 0.713-2.233 1.787-4.26 3.22-6.08 1.433-1.813 3.243-3.263 5.43-4.35 2.18-1.08 4.72-1.62 7.62-1.62v0c0.9 0 1.917 0.093 3.05 0.28 1.133 0.18 2.277 0.453 3.43 0.82 1.147 0.367 2.17 0.817 3.07 1.35v0l-0.2-2.1h3.85v11.65h-3.25c-0.3-1.867-0.883-3.417-1.75-4.65-0.867-1.233-1.95-2.167-3.25-2.8-1.3-0.633-2.733-0.95-4.3-0.95v0c-1.733 0-3.24 0.4-4.52 1.2-1.287 0.8-2.347 1.867-3.18 3.2-0.833 1.333-1.457 2.85-1.87 4.55-0.42 1.7-0.63 3.45-0.63 5.25v0c0 2.867 0.4 5.417 1.2 7.65 0.8 2.233 1.977 3.99 3.53 5.27 1.547 1.287 3.453 1.93 5.72 1.93v0c0.633 0 1.383-0.05 2.25-0.15 0.867-0.1 1.733-0.25 2.6-0.45 0.867-0.2 1.6-0.45 2.2-0.75v0-4.65c0-0.9 0.027-1.767 0.08-2.6 0.047-0.833 0.087-1.467 0.12-1.9v0c-0.533 0.033-1.2 0.057-2 0.07-0.8 0.02-1.383 0.047-1.75 0.08v0-3.85h13.3v3.3c-0.567 0.033-1.057 0.1-1.47 0.2-0.42 0.1-0.77 0.29-1.05 0.57-0.287 0.287-0.497 0.713-0.63 1.28-0.133 0.567-0.2 1.333-0.2 2.3v0 8h-1.2c-0.967 0-1.933 0.133-2.9 0.4-0.967 0.267-2 0.567-3.1 0.9v0c-1.033 0.3-2.167 0.577-3.4 0.83-1.233 0.247-2.6 0.37-4.1 0.37zM196.85 39.7h-14.6v-3.3c0.767-0.033 1.41-0.133 1.93-0.3 0.513-0.167 0.913-0.55 1.2-1.15 0.28-0.6 0.42-1.567 0.42-2.9v0-4.35l-9.2-14.55c-0.467-0.767-0.9-1.617-1.3-2.55-0.4-0.933-0.6-1.667-0.6-2.2v0c-0.533 0.033-0.983 0.057-1.35 0.07-0.367 0.02-0.733 0.047-1.1 0.08v0-3.85h14.75v3.3c-0.967-0.067-1.767 0.033-2.4 0.3-0.633 0.267-1.017 0.69-1.15 1.27-0.133 0.587 0.067 1.347 0.6 2.28v0l3.8 6.25c0.167 0.267 0.417 0.69 0.75 1.27 0.333 0.587 0.677 1.203 1.03 1.85 0.347 0.653 0.603 1.23 0.77 1.73v0h0.05c0.167-0.4 0.45-1 0.85-1.8 0.4-0.8 0.9-1.833 1.5-3.1v0l2.6-5.1c0.167-0.367 0.4-0.843 0.7-1.43 0.3-0.58 0.627-1.163 0.98-1.75 0.347-0.58 0.67-1.053 0.97-1.42v0c-0.533 0.033-1.217 0.067-2.05 0.1-0.833 0.033-1.433 0.067-1.8 0.1v0-3.85h11.05v3.3c-1.167 0.167-2.167 0.64-3 1.42-0.833 0.787-1.733 2.097-2.7 3.93v0c-1.067 2.067-2.15 4.15-3.25 6.25-1.1 2.1-2.183 4.183-3.25 6.25v0c0 0.467 0 0.933 0 1.4 0 0.467 0 0.94 0 1.42 0 0.487 0 0.963 0 1.43 0 0.467 0 0.933 0 1.4v0c0 0.9-0.017 1.767-0.05 2.6-0.033 0.833-0.083 1.467-0.15 1.9v0c0.567-0.067 1.293-0.11 2.18-0.13 0.88-0.013 1.487-0.02 1.82-0.02v0z" fill="#ffffff" fill-rule="nonzero" stroke="none" stroke-width="1" stroke-linecap="butt" stroke-linejoin="miter" stroke-miterlimit="10" stroke-dasharray="" stroke-dashoffset="0" font-family="none" font-weight="none" font-size="none" text-anchor="none" style="mix-blend-mode: normal" data-fill-palette-color="primary" opacity="1"></path><path xmlns="http://www.w3.org/2000/svg" d="M13.05 80.2v0c-1.433 0-2.857-0.183-4.27-0.55-1.42-0.367-2.703-0.927-3.85-1.68-1.153-0.747-2.07-1.703-2.75-2.87-0.687-1.167-1.03-2.567-1.03-4.2v0c0-2.233 0.743-4.21 2.23-5.93 1.48-1.713 3.337-2.987 5.57-3.82v0c-1.2-1.3-2.09-2.483-2.67-3.55-0.587-1.067-0.97-2.067-1.15-3-0.187-0.933-0.28-1.85-0.28-2.75v0c0.033-2.533 0.917-4.543 2.65-6.03 1.733-1.48 4.033-2.22 6.9-2.22v0c1.767 0 3.3 0.367 4.6 1.1 1.3 0.733 2.31 1.69 3.03 2.87 0.713 1.187 1.07 2.48 1.07 3.88v0c0 1.367-0.34 2.657-1.02 3.87-0.687 1.22-1.58 2.32-2.68 3.3-1.1 0.987-2.267 1.847-3.5 2.58v0c0.133 0.133 0.6 0.617 1.4 1.45 0.8 0.833 1.8 1.833 3 3 1.2 1.167 2.433 2.333 3.7 3.5v0c0.1-0.4 0.167-0.81 0.2-1.23 0.033-0.413 0.05-0.837 0.05-1.27v0c0-0.933-0.1-1.667-0.3-2.2-0.2-0.533-0.49-0.927-0.87-1.18-0.387-0.247-0.88-0.387-1.48-0.42v0-3.2h8.4v3.75l-2.75-0.15c0.167 0.4 0.3 0.857 0.4 1.37 0.1 0.52 0.15 1.08 0.15 1.68v0c0 0.967-0.083 1.9-0.25 2.8-0.167 0.9-0.4 1.767-0.7 2.6v0c0.133 0.1 0.26 0.207 0.38 0.32 0.113 0.12 0.237 0.23 0.37 0.33v0c1.3 1.1 2.483 2 3.55 2.7 1.067 0.7 1.933 1.05 2.6 1.05v0 3.3h-5.35c-0.267 0-0.857-0.25-1.77-0.75-0.92-0.5-1.963-1.2-3.13-2.1v0c-1.3 1.133-2.833 2.023-4.6 2.67-1.767 0.653-3.717 0.98-5.85 0.98zM14.65 76.65v0c1.267 0 2.427-0.21 3.48-0.63 1.047-0.413 1.97-0.987 2.77-1.72v0c-0.433-0.367-0.85-0.743-1.25-1.13-0.4-0.38-0.817-0.753-1.25-1.12v0c-1.933-1.767-3.49-3.26-4.67-4.48-1.187-1.213-2.297-2.403-3.33-3.57v0c-0.633 0.5-1.123 1.1-1.47 1.8-0.353 0.7-0.603 1.39-0.75 2.07-0.153 0.687-0.23 1.28-0.23 1.78v0c0 1.5 0.267 2.773 0.8 3.82 0.533 1.053 1.3 1.847 2.3 2.38 1 0.533 2.2 0.8 3.6 0.8zM13.65 58.55v0c1.267-0.967 2.217-2.177 2.85-3.63 0.633-1.447 0.95-2.687 0.95-3.72v0c0-1.2-0.293-2.183-0.88-2.95-0.58-0.767-1.387-1.15-2.42-1.15v0c-0.933 0-1.723 0.383-2.37 1.15-0.653 0.767-0.98 1.883-0.98 3.35v0c0 1 0.277 2.157 0.83 3.47 0.547 1.32 1.22 2.48 2.02 3.48z" fill="#ffffff" fill-rule="nonzero" stroke="none" stroke-width="1" stroke-linecap="butt" stroke-linejoin="miter" stroke-miterlimit="10" stroke-dasharray="" stroke-dashoffset="0" font-family="none" font-weight="none" font-size="none" text-anchor="none" style="mix-blend-mode: normal" data-fill-palette-color="primary" opacity="1"></path><path xmlns="http://www.w3.org/2000/svg" d="M2.5 119.1v-3.3c0.767-0.033 1.407-0.133 1.92-0.3 0.52-0.167 0.923-0.55 1.21-1.15 0.28-0.6 0.42-1.567 0.42-2.9v0-19.15c0-0.9 0.027-1.767 0.08-2.6 0.047-0.833 0.087-1.467 0.12-1.9v0c-0.533 0.033-1.2 0.057-2 0.07-0.8 0.02-1.383 0.047-1.75 0.08v0-3.85l14.55-0.05c3.3 0 6.16 0.49 8.58 1.47 2.413 0.987 4.397 2.313 5.95 3.98 1.547 1.667 2.703 3.523 3.47 5.57 0.767 2.053 1.15 4.113 1.15 6.18v0c0 2.033-0.357 4.1-1.07 6.2-0.72 2.1-1.847 4.023-3.38 5.77-1.533 1.753-3.533 3.17-6 4.25-2.467 1.087-5.45 1.63-8.95 1.63v0zM13.3 91.65v19.25c0 0.9-0.017 1.767-0.05 2.6-0.033 0.833-0.083 1.467-0.15 1.9v0c0.333-0.033 0.793-0.043 1.38-0.03 0.58 0.02 1.187 0.037 1.82 0.05 0.633 0.02 1.15 0.03 1.55 0.03v0c1.833 0 3.41-0.367 4.73-1.1 1.313-0.733 2.397-1.727 3.25-2.98 0.847-1.247 1.47-2.653 1.87-4.22 0.4-1.567 0.6-3.183 0.6-4.85v0c0-3.4-0.467-6.183-1.4-8.35-0.933-2.167-2.24-3.783-3.92-4.85-1.687-1.067-3.697-1.633-6.03-1.7v0c-0.8-0.033-1.473 0.04-2.02 0.22-0.553 0.187-0.963 0.58-1.23 1.18-0.267 0.6-0.4 1.55-0.4 2.85zM54.1 84.1v3.3c-0.733 0.033-1.367 0.133-1.9 0.3-0.533 0.167-0.94 0.54-1.22 1.12-0.287 0.587-0.43 1.563-0.43 2.93v0 19.15c0 0.9-0.017 1.767-0.05 2.6-0.033 0.833-0.083 1.467-0.15 1.9v0c0.533-0.067 1.21-0.11 2.03-0.13 0.813-0.013 1.387-0.02 1.72-0.02v0 3.85h-14.35v-3.3c0.767-0.033 1.407-0.133 1.92-0.3 0.52-0.167 0.923-0.55 1.21-1.15 0.28-0.6 0.42-1.567 0.42-2.9v0-19.15c0-0.9 0.027-1.767 0.08-2.6 0.047-0.833 0.087-1.467 0.12-1.9v0c-0.533 0.033-1.2 0.057-2 0.07-0.8 0.02-1.383 0.047-1.75 0.08v0-3.85zM74.8 119.9v0c-3.6 0-6.667-0.793-9.2-2.38-2.533-1.58-4.467-3.72-5.8-6.42-1.333-2.7-2-5.7-2-9v0c0-2.267 0.36-4.517 1.08-6.75 0.713-2.233 1.787-4.26 3.22-6.08 1.433-1.813 3.243-3.263 5.43-4.35 2.18-1.08 4.72-1.62 7.62-1.62v0c0.9 0 1.917 0.093 3.05 0.28 1.133 0.18 2.277 0.453 3.43 0.82 1.147 0.367 2.17 0.817 3.07 1.35v0l-0.2-2.1h3.85v11.65h-3.25c-0.3-1.867-0.883-3.417-1.75-4.65-0.867-1.233-1.95-2.167-3.25-2.8-1.3-0.633-2.733-0.95-4.3-0.95v0c-1.733 0-3.24 0.4-4.52 1.2-1.287 0.8-2.347 1.867-3.18 3.2-0.833 1.333-1.46 2.85-1.88 4.55-0.413 1.7-0.62 3.45-0.62 5.25v0c0 2.867 0.4 5.417 1.2 7.65 0.8 2.233 1.977 3.99 3.53 5.27 1.547 1.287 3.453 1.93 5.72 1.93v0c0.633 0 1.383-0.05 2.25-0.15 0.867-0.1 1.733-0.25 2.6-0.45 0.867-0.2 1.6-0.45 2.2-0.75v0-4.65c0-0.9 0.023-1.767 0.07-2.6 0.053-0.833 0.097-1.467 0.13-1.9v0c-0.533 0.033-1.2 0.057-2 0.07-0.8 0.02-1.383 0.047-1.75 0.08v0-3.85h13.3v3.3c-0.567 0.033-1.057 0.1-1.47 0.2-0.42 0.1-0.77 0.29-1.05 0.57-0.287 0.287-0.497 0.713-0.63 1.28-0.133 0.567-0.2 1.333-0.2 2.3v0 8h-1.2c-0.967 0-1.933 0.133-2.9 0.4-0.967 0.267-2 0.567-3.1 0.9v0c-1.033 0.3-2.167 0.577-3.4 0.83-1.233 0.247-2.6 0.37-4.1 0.37zM110.55 84.1v3.3c-0.733 0.033-1.367 0.133-1.9 0.3-0.533 0.167-0.94 0.54-1.22 1.12-0.287 0.587-0.43 1.563-0.43 2.93v0 19.15c0 0.9-0.017 1.767-0.05 2.6-0.033 0.833-0.083 1.467-0.15 1.9v0c0.533-0.067 1.21-0.11 2.03-0.13 0.813-0.013 1.387-0.02 1.72-0.02v0 3.85h-14.35v-3.3c0.767-0.033 1.41-0.133 1.93-0.3 0.513-0.167 0.913-0.55 1.2-1.15 0.28-0.6 0.42-1.567 0.42-2.9v0-19.15c0-0.9 0.027-1.767 0.08-2.6 0.047-0.833 0.087-1.467 0.12-1.9v0c-0.533 0.033-1.2 0.057-2 0.07-0.8 0.02-1.383 0.047-1.75 0.08v0-3.85zM144.7 95.4h-3.3c0-1.8-0.25-3.293-0.75-4.48-0.5-1.18-1.207-2.063-2.12-2.65-0.92-0.58-2.013-0.853-3.28-0.82v0h-2.4v23.45c0 0.9-0.017 1.767-0.05 2.6-0.033 0.833-0.083 1.467-0.15 1.9v0c0.567-0.067 1.293-0.11 2.18-0.13 0.88-0.013 1.487-0.02 1.82-0.02v0 3.85h-14.6v-3.3c0.767-0.033 1.41-0.133 1.93-0.3 0.513-0.167 0.913-0.55 1.2-1.15 0.28-0.6 0.42-1.567 0.42-2.9v0-23.95h-2.3c-1.9 0.033-3.4 0.683-4.5 1.95-1.1 1.267-1.65 3.25-1.65 5.95v0h-3.3l0.25-11.3h30.3zM153.8 119.1h-10.7v-3.45c0.933 0 1.683-0.267 2.25-0.8 0.567-0.533 1.043-1.233 1.43-2.1 0.38-0.867 0.753-1.8 1.12-2.8v0l9.75-26.75h3.5l10.65 27.25c0.2 0.5 0.467 1.257 0.8 2.27 0.333 1.02 0.533 1.913 0.6 2.68v0c0.567-0.067 1.11-0.11 1.63-0.13 0.513-0.013 0.937-0.02 1.27-0.02v0 3.85h-13.45v-3.3c0.933 0 1.577-0.193 1.93-0.58 0.347-0.38 0.503-0.903 0.47-1.57-0.033-0.667-0.217-1.417-0.55-2.25v0l-1-2.75-10.85 0.2-0.8 2.35c-0.167 0.433-0.407 1.073-0.72 1.92-0.32 0.853-0.613 1.563-0.88 2.13v0c0.533-0.067 1.177-0.11 1.93-0.13 0.747-0.013 1.287-0.02 1.62-0.02v0zM156.15 98.6l-2.25 6.5h8.35l-2.3-6.25c-0.433-1.2-0.817-2.41-1.15-3.63-0.333-1.213-0.583-2.287-0.75-3.22v0h-0.05c-0.133 0.567-0.333 1.417-0.6 2.55-0.267 1.133-0.683 2.483-1.25 4.05zM205.45 119.1h-26.65v-3.3c0.767-0.033 1.41-0.133 1.93-0.3 0.513-0.167 0.913-0.55 1.2-1.15 0.28-0.6 0.42-1.567 0.42-2.9v0-19.15c0-0.9 0.027-1.767 0.08-2.6 0.047-0.833 0.087-1.467 0.12-1.9v0c-0.533 0.033-1.2 0.057-2 0.07-0.8 0.02-1.383 0.047-1.75 0.08v0-3.85h14.35v3.3c-0.733 0.033-1.367 0.133-1.9 0.3-0.533 0.167-0.94 0.54-1.22 1.12-0.287 0.587-0.43 1.563-0.43 2.93v0 19.15c0 0.9-0.017 1.75-0.05 2.55-0.033 0.8-0.083 1.417-0.15 1.85v0h6.7c1.967-0.033 3.51-0.727 4.63-2.08 1.113-1.347 1.67-3.387 1.67-6.12v0h3.35z" fill="#ffffff" fill-rule="nonzero" stroke="none" stroke-width="1" stroke-linecap="butt" stroke-linejoin="miter" stroke-miterlimit="10" stroke-dasharray="" stroke-dashoffset="0" font-family="none" font-weight="none" font-size="none" text-anchor="none" style="mix-blend-mode: normal" data-fill-palette-color="primary" opacity="1"></path><path xmlns="http://www.w3.org/2000/svg" d="M2.5 158.8v-3.3c0.767-0.033 1.407-0.133 1.92-0.3 0.52-0.167 0.923-0.55 1.21-1.15 0.28-0.6 0.42-1.567 0.42-2.9v0-19.15c0-0.9 0.027-1.767 0.08-2.6 0.047-0.833 0.087-1.467 0.12-1.9v0c-0.533 0.033-1.2 0.057-2 0.07-0.8 0.02-1.383 0.047-1.75 0.08v0-3.85c2.367-0.033 4.733-0.05 7.1-0.05 2.367 0 4.733-0.017 7.1-0.05v0c2.933-0.033 5.493 0.35 7.68 1.15 2.18 0.8 3.863 2.033 5.05 3.7 1.18 1.667 1.737 3.833 1.67 6.5v0c-0.033 1.333-0.35 2.64-0.95 3.92-0.6 1.287-1.483 2.457-2.65 3.51-1.167 1.047-2.633 1.903-4.4 2.57-1.767 0.667-3.833 1.033-6.2 1.1v0c-0.733 0.033-1.373 0.05-1.92 0.05-0.553 0-1.113-0.017-1.68-0.05v0 4.4c0 0.933-0.017 1.817-0.05 2.65-0.033 0.833-0.083 1.467-0.15 1.9v0c0.367-0.033 0.833-0.06 1.4-0.08 0.567-0.013 1.127-0.03 1.68-0.05 0.547-0.013 0.937-0.02 1.17-0.02v0 3.85zM13.3 131.15v11.25c0.367 0.033 0.733 0.067 1.1 0.1 0.367 0.033 0.75 0.05 1.15 0.05v0c1.833 0 3.327-0.31 4.48-0.93 1.147-0.613 1.987-1.513 2.52-2.7 0.533-1.18 0.8-2.62 0.8-4.32v0c0-1.667-0.223-3-0.67-4-0.453-1-1.03-1.743-1.73-2.23-0.7-0.48-1.433-0.797-2.2-0.95-0.767-0.147-1.467-0.22-2.1-0.22v0c-0.7 0-1.3 0.083-1.8 0.25-0.5 0.167-0.883 0.533-1.15 1.1-0.267 0.567-0.4 1.433-0.4 2.6zM49 158.8h-14.85v-3.3c0.767-0.033 1.41-0.133 1.93-0.3 0.513-0.167 0.913-0.55 1.2-1.15 0.28-0.6 0.42-1.567 0.42-2.9v0-19.15c0-0.9 0.027-1.767 0.08-2.6 0.047-0.833 0.087-1.467 0.12-1.9v0c-0.533 0.033-1.2 0.057-2 0.07-0.8 0.02-1.383 0.047-1.75 0.08v0-3.85c2.367-0.033 4.733-0.05 7.1-0.05 2.367 0 4.733-0.017 7.1-0.05v0c2.933-0.033 5.483 0.3 7.65 1 2.167 0.7 3.833 1.833 5 3.4 1.167 1.567 1.717 3.683 1.65 6.35v0c-0.033 1.4-0.373 2.733-1.02 4-0.653 1.267-1.62 2.383-2.9 3.35-1.287 0.967-2.913 1.733-4.88 2.3v0c0.633 0.267 1.26 0.7 1.88 1.3 0.613 0.6 1.137 1.233 1.57 1.9v0l2.35 3.5c0.733 1.133 1.383 2.033 1.95 2.7 0.567 0.667 1.133 1.157 1.7 1.47 0.567 0.32 1.217 0.497 1.95 0.53v0 3.3h-8.25c-0.6-0.433-1.19-1.06-1.77-1.88-0.587-0.813-1.213-1.753-1.88-2.82v0l-3.7-6c-0.433-0.667-0.807-1.233-1.12-1.7-0.32-0.467-0.647-0.867-0.98-1.2v0c-0.533 0-0.983 0-1.35 0-0.367 0-0.783 0-1.25 0v0 5.35c0 0.933-0.017 1.817-0.05 2.65-0.033 0.833-0.083 1.467-0.15 1.9v0c0.367-0.033 0.833-0.06 1.4-0.08 0.567-0.013 1.127-0.03 1.68-0.05 0.547-0.013 0.937-0.02 1.17-0.02v0zM47.35 141.6v0c1.867 0 3.367-0.277 4.5-0.83 1.133-0.547 1.96-1.38 2.48-2.5 0.513-1.113 0.77-2.52 0.77-4.22v0c0-1.6-0.25-2.86-0.75-3.78-0.5-0.913-1.123-1.597-1.87-2.05-0.753-0.447-1.513-0.73-2.28-0.85-0.767-0.113-1.4-0.17-1.9-0.17v0c-0.7 0-1.3 0.083-1.8 0.25-0.5 0.167-0.883 0.533-1.15 1.1-0.267 0.567-0.4 1.433-0.4 2.6v0 10.25c0.367 0.033 0.75 0.073 1.15 0.12 0.4 0.053 0.817 0.08 1.25 0.08zM84.85 159.6v0c-3.167 0-5.857-0.533-8.07-1.6-2.22-1.067-4.013-2.493-5.38-4.28-1.367-1.78-2.367-3.753-3-5.92-0.633-2.167-0.95-4.333-0.95-6.5v0c0-2.1 0.36-4.227 1.08-6.38 0.713-2.147 1.797-4.12 3.25-5.92 1.447-1.8 3.27-3.25 5.47-4.35 2.2-1.1 4.783-1.65 7.75-1.65v0c3.033 0 5.65 0.55 7.85 1.65 2.2 1.1 4 2.557 5.4 4.37 1.4 1.82 2.443 3.797 3.13 5.93 0.68 2.133 1.02 4.25 1.02 6.35v0c0 2.067-0.357 4.167-1.07 6.3-0.72 2.133-1.803 4.107-3.25 5.92-1.453 1.82-3.28 3.287-5.48 4.4-2.2 1.12-4.783 1.68-7.75 1.68zM85.4 155.95v0c1.733 0 3.183-0.427 4.35-1.28 1.167-0.847 2.1-1.953 2.8-3.32 0.7-1.367 1.2-2.86 1.5-4.48 0.3-1.613 0.45-3.187 0.45-4.72v0c0-2.3-0.2-4.4-0.6-6.3-0.4-1.9-1.017-3.543-1.85-4.93-0.833-1.38-1.89-2.447-3.17-3.2-1.287-0.747-2.797-1.103-4.53-1.07v0c-1.7 0.033-3.133 0.49-4.3 1.37-1.167 0.887-2.1 2.02-2.8 3.4-0.7 1.387-1.2 2.897-1.5 4.53-0.3 1.633-0.45 3.217-0.45 4.75v0c0 1.567 0.177 3.233 0.53 5 0.347 1.767 0.903 3.433 1.67 5 0.767 1.567 1.8 2.833 3.1 3.8 1.3 0.967 2.9 1.45 4.8 1.45zM135.7 135h-3.25c-0.433-2.767-1.357-4.85-2.77-6.25-1.42-1.4-3.297-2.117-5.63-2.15v0c-1.733 0-3.25 0.4-4.55 1.2-1.3 0.8-2.373 1.867-3.22 3.2-0.853 1.333-1.487 2.85-1.9 4.55-0.42 1.7-0.63 3.45-0.63 5.25v0c0 2.867 0.41 5.407 1.23 7.62 0.813 2.22 2.003 3.963 3.57 5.23 1.567 1.267 3.467 1.9 5.7 1.9v0c2.1 0 4.183-0.543 6.25-1.63 2.067-1.08 3.8-2.587 5.2-4.52v0l2.4 2.2c-1.633 2.233-3.35 3.923-5.15 5.07-1.8 1.153-3.557 1.93-5.27 2.33-1.72 0.4-3.263 0.6-4.63 0.6v0c-2.567 0-4.9-0.46-7-1.38-2.1-0.913-3.907-2.18-5.42-3.8-1.52-1.613-2.687-3.497-3.5-5.65-0.82-2.147-1.23-4.47-1.23-6.97v0c0-2.267 0.367-4.517 1.1-6.75 0.733-2.233 1.827-4.26 3.28-6.08 1.447-1.813 3.27-3.263 5.47-4.35 2.2-1.08 4.75-1.62 7.65-1.62v0c1.3 0 2.727 0.207 4.28 0.62 1.547 0.42 3.003 1.03 4.37 1.83v0l-0.2-2.1h3.85zM161.35 146.75h-3.3c0-1.4-0.217-2.41-0.65-3.03-0.433-0.613-1.023-1.003-1.77-1.17-0.753-0.167-1.58-0.233-2.48-0.2v0l-1.3 0.05v8.2c0 0.9-0.017 1.75-0.05 2.55-0.033 0.8-0.083 1.417-0.15 1.85v0h6.7c1 0 1.967-0.227 2.9-0.68 0.933-0.447 1.7-1.197 2.3-2.25 0.6-1.047 0.9-2.47 0.9-4.27v0h3.25l-0.25 11h-26.4v-3.3c0.767-0.033 1.41-0.133 1.93-0.3 0.513-0.167 0.913-0.55 1.2-1.15 0.28-0.6 0.42-1.567 0.42-2.9v0-19.15c0-0.9 0.027-1.767 0.08-2.6 0.047-0.833 0.087-1.467 0.12-1.9v0c-0.533 0.033-1.2 0.057-2 0.07-0.8 0.02-1.383 0.047-1.75 0.08v0-3.85h25l0.3 9.7h-3.3c0-1.833-0.317-3.217-0.95-4.15-0.633-0.933-1.417-1.56-2.35-1.88-0.933-0.313-1.85-0.453-2.75-0.42v0l-1.8 0.05c-0.7 0-1.3 0.09-1.8 0.27-0.5 0.187-0.883 0.587-1.15 1.2-0.267 0.62-0.4 1.58-0.4 2.88v0 7.5h5.85l-0.2-4.35h3.85zM195.75 135h-3.3c-0.3-1.867-0.833-3.427-1.6-4.68-0.767-1.247-1.74-2.187-2.92-2.82-1.187-0.633-2.563-0.933-4.13-0.9v0c-1.433 0-2.69 0.4-3.77 1.2-1.087 0.8-1.63 1.833-1.63 3.1v0c0 1.033 0.293 1.933 0.88 2.7 0.58 0.767 1.47 1.483 2.67 2.15 1.2 0.667 2.717 1.383 4.55 2.15v0c1.267 0.5 2.567 1.083 3.9 1.75 1.333 0.667 2.567 1.457 3.7 2.37 1.133 0.92 2.05 1.987 2.75 3.2 0.7 1.22 1.05 2.647 1.05 4.28v0c0 1.967-0.533 3.717-1.6 5.25-1.067 1.533-2.56 2.723-4.48 3.57-1.913 0.853-4.153 1.28-6.72 1.28v0c-1.333 0-2.773-0.207-4.32-0.62-1.553-0.42-3.013-1.03-4.38-1.83v0l0.15 2.1h-3.85v-11.7h3.3c0.467 2.8 1.54 4.907 3.22 6.32 1.687 1.42 3.697 2.13 6.03 2.13v0c1.2 0 2.25-0.217 3.15-0.65 0.9-0.433 1.6-1.01 2.1-1.73 0.5-0.713 0.75-1.487 0.75-2.32v0c0-1.167-0.407-2.133-1.22-2.9-0.82-0.767-1.84-1.417-3.06-1.95-1.213-0.533-2.453-1.05-3.72-1.55v0c-1.6-0.667-3.09-1.377-4.47-2.13-1.387-0.747-2.597-1.603-3.63-2.57-1.033-0.967-1.833-2.077-2.4-3.33-0.567-1.247-0.85-2.687-0.85-4.32v0c0-1.033 0.2-2.11 0.6-3.23 0.4-1.113 1.05-2.147 1.95-3.1 0.9-0.947 2.1-1.72 3.6-2.32 1.5-0.6 3.35-0.9 5.55-0.9v0c1.333 0 2.79 0.2 4.37 0.6 1.587 0.4 2.947 1 4.08 1.8v0l-0.2-2.05h3.9zM225.65 135h-3.3c-0.3-1.867-0.833-3.427-1.6-4.68-0.767-1.247-1.74-2.187-2.92-2.82-1.187-0.633-2.563-0.933-4.13-0.9v0c-1.433 0-2.69 0.4-3.77 1.2-1.087 0.8-1.63 1.833-1.63 3.1v0c0 1.033 0.293 1.933 0.88 2.7 0.58 0.767 1.47 1.483 2.67 2.15 1.2 0.667 2.717 1.383 4.55 2.15v0c1.267 0.5 2.567 1.083 3.9 1.75 1.333 0.667 2.567 1.457 3.7 2.37 1.133 0.92 2.05 1.987 2.75 3.2 0.7 1.22 1.05 2.647 1.05 4.28v0c0 1.967-0.533 3.717-1.6 5.25-1.067 1.533-2.557 2.723-4.47 3.57-1.92 0.853-4.163 1.28-6.73 1.28v0c-1.333 0-2.773-0.207-4.32-0.62-1.553-0.42-3.013-1.03-4.38-1.83v0l0.15 2.1h-3.85v-11.7h3.3c0.467 2.8 1.543 4.907 3.23 6.32 1.68 1.42 3.687 2.13 6.02 2.13v0c1.2 0 2.25-0.217 3.15-0.65 0.9-0.433 1.6-1.01 2.1-1.73 0.5-0.713 0.75-1.487 0.75-2.32v0c0-1.167-0.407-2.133-1.22-2.9-0.82-0.767-1.837-1.417-3.05-1.95-1.22-0.533-2.463-1.05-3.73-1.55v0c-1.6-0.667-3.09-1.377-4.47-2.13-1.387-0.747-2.597-1.603-3.63-2.57-1.033-0.967-1.833-2.077-2.4-3.33-0.567-1.247-0.85-2.687-0.85-4.32v0c0-1.033 0.2-2.11 0.6-3.23 0.4-1.113 1.05-2.147 1.95-3.1 0.9-0.947 2.1-1.72 3.6-2.32 1.5-0.6 3.35-0.9 5.55-0.9v0c1.333 0 2.793 0.2 4.38 0.6 1.58 0.4 2.937 1 4.07 1.8v0l-0.2-2.05h3.9z" fill="#ffffff" fill-rule="nonzero" stroke="none" stroke-width="1" stroke-linecap="butt" stroke-linejoin="miter" stroke-miterlimit="10" stroke-dasharray="" stroke-dashoffset="0" font-family="none" font-weight="none" font-size="none" text-anchor="none" style="mix-blend-mode: normal" data-fill-palette-color="primary" opacity="1"></path></g></svg></g></svg></g></svg></g></svg></g><g transform="matrix(1,0,0,1,0,55.45430644119168)"><svg viewBox="0 0 140.287556675063 90.09138711761663" height="90.09138711761663" width="140.287556675063"><g><svg xmlns="http://www.w3.org/2000/svg" xmlns:xlink="http://www.w3.org/1999/xlink" version="1.1" x="0" y="0" viewBox="10.00011920928955 24.31243896484375 79.99977111816406 51.3751220703125" style="enable-background:new 0 0 100 100;" xml:space="preserve" height="90.09138711761663" width="140.287556675063" class="icon-icon-0" data-fill-palette-color="accent" id="icon-0"><g fill="#81ffd9" data-fill-palette-color="accent"><path d="M89.867 73.583L82.443 56.993c-0.047-0.105-0.071-0.219-0.071-0.334V44.423h-9.911v12.236c0 0.115-0.025 0.229-0.071 0.334l-1.469 3.283-0.544 1.216-5.411 12.091c-0.172 0.386-0.177 0.81-0.014 1.193 0.164 0.384 0.477 0.681 0.859 0.816 0.176 0.066 0.341 0.096 0.521 0.096h22.17c0.516 0 0.973-0.249 1.254-0.682C90.037 74.574 90.077 74.055 89.867 73.583zM74.567 50.927c0-1.422 1.157-2.58 2.58-2.58s2.58 1.157 2.579 2.58-1.157 2.58-2.579 2.58S74.567 52.349 74.567 50.927zM75.694 59.999c0-1.406 1.145-2.551 2.551-2.551s2.551 1.145 2.551 2.551c0 1.407-1.145 2.552-2.551 2.552S75.694 61.406 75.694 59.999zM80.66 70.872c-1.781 0-3.231-1.45-3.232-3.232 0-1.781 1.45-3.231 3.232-3.231 1.781 0 3.231 1.45 3.231 3.231C83.891 69.422 82.441 70.872 80.66 70.872z" fill="#81ffd9" data-fill-palette-color="accent"></path><path d="M17.414 66.367h21.435 17.152 10.403l2.153-4.806 0.359-0.802H21.084c-0.451 0-0.816-0.365-0.816-0.816V30.726c0-0.451 0.366-0.816 0.816-0.816H73.766c0.451 0 0.816 0.366 0.816 0.816v5.639h4.078V25.536c0-0.686-0.538-1.224-1.223-1.224h-60.023c-0.686 0-1.224 0.538-1.223 1.224v39.607C16.191 65.818 16.739 66.367 17.414 66.367zM46.341 62.748h2.168c0.451 0 0.816 0.366 0.816 0.816s-0.365 0.816-0.816 0.816h-2.168c-0.451 0-0.816-0.366-0.816-0.816S45.891 62.748 46.341 62.748zM47.26 26.292h0.331c0.451 0 0.816 0.366 0.817 0.816s-0.366 0.816-0.817 0.816h-0.331c-0.451 0-0.816-0.366-0.817-0.816S46.809 26.292 47.26 26.292z" fill="#81ffd9" data-fill-palette-color="accent"></path><path d="M69.442 37.998c-0.646 0-1.172 0.526-1.173 1.172v2.448c0 0.646 0.526 1.172 1.173 1.172h2.203 11.543 2.203c0.641 0 1.162-0.526 1.161-1.172v-2.448c0-0.646-0.521-1.172-1.161-1.172h-5.914H73.766 69.442z" fill="#81ffd9" data-fill-palette-color="accent"></path><path d="M63.475 72.917l2.199-4.917h-9.297l-2.815 3.284c-0.155 0.181-0.382 0.285-0.62 0.285H41.908c-0.238 0-0.464-0.104-0.62-0.285l-2.815-3.284H17.414 11.224c-0.675 0-1.224 0.548-1.224 1.223v4.078c0 1.237 1.007 2.244 2.243 2.244H63.508c-0.02-0.042-0.039-0.085-0.057-0.127C63.107 74.611 63.115 73.723 63.475 72.917zM16.259 72.589h-2.168c-0.451 0-0.816-0.366-0.816-0.816s0.366-0.816 0.816-0.816h2.168c0.451 0 0.816 0.366 0.816 0.816S16.709 72.589 16.259 72.589zM22.887 72.589h-2.167c-0.451 0-0.816-0.366-0.817-0.816s0.366-0.816 0.817-0.816h2.167c0.451 0 0.816 0.366 0.816 0.816S23.338 72.589 22.887 72.589z" fill="#81ffd9" data-fill-palette-color="accent"></path></g></svg></g></svg></g></svg></g><defs></defs></svg><rect width="386.1528852206475" height="200" fill="none" stroke="none" visibility="hidden"></rect></g></svg></g></svg>